<?xml version="1.0" encoding="utf-8"?>
<?xml-stylesheet href="hmiLogoOneSvg.css" type="text/css" ?>
<!-- Generator: Adobe Illustrator 16.0.2, SVG Export Plug-In . SVG Version: 6.00 Build 0)  -->
<!DOCTYPE svg PUBLIC "-//W3C//DTD SVG 1.1//EN" "http://www.w3.org/Graphics/SVG/1.1/DTD/svg11.dtd">
<svg version="1.1" id="Layer_1" xmlns="http://www.w3.org/2000/svg" xmlns:xlink="http://www.w3.org/1999/xlink" x="0px" y="0px"
	 width="100px" height="100px" viewBox="0 0 300 300" enable-background="new 0 0 300 300" xml:space="preserve">
<polyline fill="#161616" points="86.628,207.594 86.628,253.667 100.326,253.667 100.326,230.628 118.173,225.025 118.173,253.667 
	131.042,253.667 131.042,175.213 119.003,180.197 118.801,210.368 116.15,211.178 100.422,217.245 100.326,193.481 "/>
<path fill="#161616" d="M140.276,173.195c0,5.448,0,80.472,0,80.472h12.298v-64.593h1.557l12.297,64.593h10.119l13.23-59.768
	l1.713,0.312v59.456h11.051c0,0,0.936-66.151,0-68.953c-0.934-2.802-21.682-9.501-21.682-9.501l-9.893,53.705l-10.609-57.523
	c0,0-7.938-0.738-12.764,0.196"/>
<path fill="#161616" d="M212.037,190.786v62.881h12.92c0,0,0.934-49.337,0-51.518C224.023,199.968,212.037,190.786,212.037,190.786z
	"/>
<polygon fill="#161616" points="119.263,59.252 119.263,75.129 144.168,75.129 144.168,163.855 159.425,163.855 159.425,75.129 
	184.641,75.129 184.641,59.252 159.425,59.252 159.425,37.46 144.637,37.46 144.479,59.252 "/>
</svg>
